<mxfile host="app.diagrams.net" modified="2024-01-22T12:54:38.477Z" agent="Mozilla/5.0 (Macintosh; Intel Mac OS X 10.15; rv:121.0) Gecko/20100101 Firefox/121.0" etag="5wIqI9nqXN-Fv3WBJ5jn" version="22.1.21" type="github">
  <diagram name="Page-1" id="e7e014a7-5840-1c2e-5031-d8a46d1fe8dd">
    <mxGraphModel dx="1332" dy="920" grid="1" gridSize="10" guides="1" tooltips="1" connect="1" arrows="1" fold="1" page="1" pageScale="1" pageWidth="1169" pageHeight="826" background="none" math="0" shadow="0">
      <root>
        <mxCell id="0" />
        <mxCell id="1" parent="0" />
        <mxCell id="2" value="Рука Алисы" style="swimlane;whiteSpace=wrap" parent="1" vertex="1">
          <mxGeometry x="164.5" y="128" width="280" height="570" as="geometry" />
        </mxCell>
        <mxCell id="dYky7ozjCTGvR8onbQTt-42" value="&lt;div&gt;Закрытая карта&lt;/div&gt;" style="swimlane;horizontal=0;whiteSpace=wrap;html=1;rotation=-180;" vertex="1" parent="2">
          <mxGeometry x="40" y="102" width="200" height="122" as="geometry" />
        </mxCell>
        <mxCell id="dYky7ozjCTGvR8onbQTt-43" value="&lt;div&gt;Закрытая карта&lt;/div&gt;" style="swimlane;horizontal=0;whiteSpace=wrap;html=1;rotation=-180;" vertex="1" parent="2">
          <mxGeometry x="40" y="225" width="200" height="122" as="geometry" />
        </mxCell>
        <mxCell id="dYky7ozjCTGvR8onbQTt-52" value="&lt;div&gt;Закрытая карта&lt;/div&gt;" style="swimlane;horizontal=0;whiteSpace=wrap;html=1;rotation=-180;" vertex="1" parent="2">
          <mxGeometry x="40" y="347" width="200" height="122" as="geometry" />
        </mxCell>
        <mxCell id="3" value="Стол Алисы" style="swimlane;whiteSpace=wrap" parent="1" vertex="1">
          <mxGeometry x="444.5" y="128" width="280" height="570" as="geometry" />
        </mxCell>
        <mxCell id="dYky7ozjCTGvR8onbQTt-59" value="&lt;div&gt;Компонент&lt;/div&gt;" style="swimlane;horizontal=0;whiteSpace=wrap;html=1;rotation=-180;fillColor=#e1d5e7;strokeColor=#9673a6;" vertex="1" parent="3">
          <mxGeometry x="40.5" y="224" width="200" height="122" as="geometry" />
        </mxCell>
        <mxCell id="dYky7ozjCTGvR8onbQTt-60" value="&lt;div align=&quot;center&quot; style=&quot;font-size: 20px;&quot;&gt;&lt;font style=&quot;font-size: 20px;&quot;&gt;Фронтенд&lt;br&gt;&lt;/font&gt;&lt;/div&gt;&lt;div align=&quot;center&quot;&gt;&lt;br&gt;&lt;/div&gt;" style="text;strokeColor=none;fillColor=none;align=center;verticalAlign=middle;spacingLeft=4;spacingRight=4;overflow=hidden;points=[[0,0.5],[1,0.5]];portConstraint=eastwest;rotatable=0;whiteSpace=wrap;html=1;rotation=-270;" vertex="1" parent="dYky7ozjCTGvR8onbQTt-59">
          <mxGeometry x="26" y="46" width="140" height="30" as="geometry" />
        </mxCell>
        <mxCell id="4" value="Колода" style="swimlane;whiteSpace=wrap" parent="1" vertex="1">
          <mxGeometry x="724.5" y="128" width="280" height="570" as="geometry" />
        </mxCell>
        <mxCell id="dYky7ozjCTGvR8onbQTt-58" value="&lt;div&gt;Закрытые карты&lt;/div&gt;" style="swimlane;horizontal=0;whiteSpace=wrap;html=1;rotation=90;" vertex="1" parent="4">
          <mxGeometry x="40" y="225" width="210" height="122" as="geometry" />
        </mxCell>
        <mxCell id="dYky7ozjCTGvR8onbQTt-61" value="&lt;div&gt;Закрытые карты&lt;/div&gt;" style="swimlane;horizontal=0;whiteSpace=wrap;html=1;rotation=90;" vertex="1" parent="dYky7ozjCTGvR8onbQTt-58">
          <mxGeometry x="10" y="-1" width="200" height="122" as="geometry" />
        </mxCell>
        <mxCell id="dYky7ozjCTGvR8onbQTt-41" value="Сброс" style="swimlane;whiteSpace=wrap" vertex="1" parent="1">
          <mxGeometry x="1004.5" y="128" width="280" height="570" as="geometry" />
        </mxCell>
        <mxCell id="dYky7ozjCTGvR8onbQTt-65" value="&lt;div&gt;Закрытые карты&lt;/div&gt;" style="swimlane;horizontal=0;whiteSpace=wrap;html=1;rotation=90;fillColor=#f8cecc;strokeColor=#b85450;" vertex="1" parent="1">
          <mxGeometry x="1050" y="357" width="210" height="122" as="geometry" />
        </mxCell>
        <mxCell id="dYky7ozjCTGvR8onbQTt-66" value="&lt;div&gt;Закрытые карты&lt;/div&gt;" style="swimlane;horizontal=0;whiteSpace=wrap;html=1;rotation=90;fillColor=#d5e8d4;strokeColor=#82b366;" vertex="1" parent="dYky7ozjCTGvR8onbQTt-65">
          <mxGeometry x="10" y="-1" width="200" height="122" as="geometry" />
        </mxCell>
        <mxCell id="dYky7ozjCTGvR8onbQTt-67" value="&lt;div&gt;Закрытые карты&lt;/div&gt;" style="swimlane;horizontal=0;whiteSpace=wrap;html=1;rotation=90;fillColor=#dae8fc;strokeColor=#6c8ebf;" vertex="1" parent="1">
          <mxGeometry x="1060" y="367" width="210" height="122" as="geometry" />
        </mxCell>
        <mxCell id="dYky7ozjCTGvR8onbQTt-68" value="Атака" style="swimlane;horizontal=0;whiteSpace=wrap;html=1;rotation=90;fillColor=#f8cecc;strokeColor=#b85450;" vertex="1" parent="dYky7ozjCTGvR8onbQTt-67">
          <mxGeometry x="10" y="-1" width="200" height="122" as="geometry" />
        </mxCell>
        <mxCell id="dYky7ozjCTGvR8onbQTt-69" value="&lt;div align=&quot;center&quot; style=&quot;font-size: 20px;&quot;&gt;&lt;font style=&quot;font-size: 20px;&quot;&gt;Ошибка&lt;br&gt;&lt;/font&gt;&lt;/div&gt;&lt;div align=&quot;center&quot;&gt;&lt;br&gt;&lt;/div&gt;" style="text;strokeColor=none;fillColor=none;align=center;verticalAlign=middle;spacingLeft=4;spacingRight=4;overflow=hidden;points=[[0,0.5],[1,0.5]];portConstraint=eastwest;rotatable=0;whiteSpace=wrap;html=1;" vertex="1" parent="dYky7ozjCTGvR8onbQTt-68">
          <mxGeometry x="30" y="46" width="140" height="30" as="geometry" />
        </mxCell>
        <mxCell id="dYky7ozjCTGvR8onbQTt-74" value="Рука Бориса" style="swimlane;whiteSpace=wrap" vertex="1" parent="1">
          <mxGeometry x="1564.5" y="128" width="280" height="570" as="geometry" />
        </mxCell>
        <mxCell id="dYky7ozjCTGvR8onbQTt-75" value="&lt;div&gt;Закрытая карта&lt;/div&gt;" style="swimlane;horizontal=0;whiteSpace=wrap;html=1;rotation=0;" vertex="1" parent="dYky7ozjCTGvR8onbQTt-74">
          <mxGeometry x="40" y="102" width="200" height="122" as="geometry" />
        </mxCell>
        <mxCell id="dYky7ozjCTGvR8onbQTt-76" value="&lt;div&gt;Закрытая карта&lt;/div&gt;" style="swimlane;horizontal=0;whiteSpace=wrap;html=1;rotation=0;" vertex="1" parent="dYky7ozjCTGvR8onbQTt-74">
          <mxGeometry x="40" y="225" width="200" height="122" as="geometry" />
        </mxCell>
        <mxCell id="dYky7ozjCTGvR8onbQTt-77" value="&lt;div&gt;Закрытая карта&lt;/div&gt;" style="swimlane;horizontal=0;whiteSpace=wrap;html=1;rotation=0;" vertex="1" parent="dYky7ozjCTGvR8onbQTt-74">
          <mxGeometry x="40" y="347" width="200" height="122" as="geometry" />
        </mxCell>
        <mxCell id="dYky7ozjCTGvR8onbQTt-78" value="Стол Бориса" style="swimlane;whiteSpace=wrap" vertex="1" parent="1">
          <mxGeometry x="1284.5" y="128" width="280" height="570" as="geometry" />
        </mxCell>
        <mxCell id="dYky7ozjCTGvR8onbQTt-79" value="&lt;div&gt;Компонент&lt;/div&gt;" style="swimlane;horizontal=0;whiteSpace=wrap;html=1;rotation=0;fillColor=#e1d5e7;strokeColor=#9673a6;" vertex="1" parent="dYky7ozjCTGvR8onbQTt-78">
          <mxGeometry x="40.25" y="163" width="200" height="122" as="geometry" />
        </mxCell>
        <mxCell id="dYky7ozjCTGvR8onbQTt-80" value="&lt;div align=&quot;center&quot; style=&quot;font-size: 20px;&quot;&gt;&lt;font style=&quot;font-size: 20px;&quot;&gt;Фронтенд&lt;br&gt;&lt;/font&gt;&lt;/div&gt;&lt;div align=&quot;center&quot;&gt;&lt;br&gt;&lt;/div&gt;" style="text;strokeColor=none;fillColor=none;align=center;verticalAlign=middle;spacingLeft=4;spacingRight=4;overflow=hidden;points=[[0,0.5],[1,0.5]];portConstraint=eastwest;rotatable=0;whiteSpace=wrap;html=1;rotation=-90;" vertex="1" parent="dYky7ozjCTGvR8onbQTt-79">
          <mxGeometry x="34" y="46" width="140" height="30" as="geometry" />
        </mxCell>
        <mxCell id="dYky7ozjCTGvR8onbQTt-81" value="&lt;div&gt;Компонент&lt;/div&gt;" style="swimlane;horizontal=0;whiteSpace=wrap;html=1;rotation=0;fillColor=#e1d5e7;strokeColor=#9673a6;" vertex="1" parent="dYky7ozjCTGvR8onbQTt-78">
          <mxGeometry x="39.75" y="285" width="200" height="122" as="geometry" />
        </mxCell>
        <mxCell id="dYky7ozjCTGvR8onbQTt-82" value="&lt;div align=&quot;center&quot; style=&quot;font-size: 20px;&quot;&gt;&lt;font style=&quot;font-size: 20px;&quot;&gt;Бекенд&lt;br&gt;&lt;/font&gt;&lt;/div&gt;&lt;div align=&quot;center&quot;&gt;&lt;br&gt;&lt;/div&gt;" style="text;strokeColor=none;fillColor=none;align=center;verticalAlign=middle;spacingLeft=4;spacingRight=4;overflow=hidden;points=[[0,0.5],[1,0.5]];portConstraint=eastwest;rotatable=0;whiteSpace=wrap;html=1;rotation=-90;" vertex="1" parent="dYky7ozjCTGvR8onbQTt-81">
          <mxGeometry x="34" y="46" width="140" height="30" as="geometry" />
        </mxCell>
      </root>
    </mxGraphModel>
  </diagram>
</mxfile>
